# 3ds Max Wavefront OBJ Exporter v0.97b - (c)2007 guruware
# File Created: 11.02.2019 14:46:38

mtllib jinwoo_test.mtl

#
# object Box001
#

v  24.1876 1.4101 33.1863
v  -11.2736 1.4101 -3.1416
v  28.3340 1.4101 -41.8043
v  63.7952 1.4101 -5.4764
v  24.1876 40.9016 33.1863
v  63.7952 40.9016 -5.4764
v  28.3340 40.9016 -41.8043
v  -11.2736 40.9016 -3.1416
# 8 vertices

vn 0.0000 -1.0000 -0.0000
vn 0.0000 1.0000 -0.0000
vn 0.6985 0.0000 0.7156
vn 0.7156 0.0000 -0.6985
vn -0.6985 0.0000 -0.7156
vn -0.7156 0.0000 0.6985
# 6 vertex normals

vt 1.0000 0.0000 0.0000
vt 1.0000 1.0000 0.0000
vt 0.0000 1.0000 0.0000
vt 0.0000 0.0000 0.0000
# 4 texture coords

g Box001
usemtl 01___Default
s 2
f 1/1/1 2/2/1 3/3/1 4/4/1 
s 4
f 5/4/2 6/1/2 7/2/2 8/3/2 
s 8
f 1/4/3 4/1/3 6/2/3 5/3/3 
s 16
f 4/4/4 3/1/4 7/2/4 6/3/4 
s 32
f 3/4/5 2/1/5 8/2/5 7/3/5 
s 64
f 2/4/6 1/1/6 5/2/6 8/3/6 
# 6 polygons

#
# object Box002
#

v  -206.2194 0.0000 144.5111
v  -206.2194 0.0000 -148.3536
v  205.0213 0.0000 -148.3536
v  205.0213 0.0000 144.5111
# 4 vertices

vn 0.0000 -1.0000 -0.0000
vn 0.0000 1.0000 -0.0000
vn 1.0000 0.0000 -0.0000
# 3 vertex normals

vt 1.0000 0.0000 0.0000
vt 1.0000 1.0000 0.0000
vt 0.0000 1.0000 0.0000
vt 0.0000 0.0000 0.0000
# 4 texture coords

g Box002
usemtl wire_225143087
s 2
f 9/5/7 10/6/7 11/7/7 12/8/7 
s 4
f 9/8/8 12/5/8 11/6/8 10/7/8 
s 8
f 9/8/9 12/8/9 12/8/9 9/8/9 
s 16
f 12/8/9 11/5/9 11/5/9 12/8/9 
s 32
f 11/5/9 10/5/9 10/5/9 11/5/9 
s 64
f 10/5/9 9/8/9 9/8/9 10/5/9 
# 6 polygons

#
# object Box003
#

v  -67.4685 0.0000 27.4192
v  -67.4685 0.0000 -18.6235
v  -48.6701 0.0000 -18.6235
v  -48.6701 0.0000 27.4192
v  -67.4685 20.3162 27.4192
v  -48.6701 20.3162 27.4192
v  -48.6701 20.3162 -18.6235
v  -67.4685 20.3162 -18.6235
# 8 vertices

vn 0.0000 -1.0000 -0.0000
vn 0.0000 1.0000 -0.0000
vn 0.0000 0.0000 1.0000
vn 1.0000 0.0000 -0.0000
vn 0.0000 0.0000 -1.0000
vn -1.0000 0.0000 -0.0000
# 6 vertex normals

vt 1.0000 0.0000 0.0000
vt 1.0000 1.0000 0.0000
vt 0.0000 1.0000 0.0000
vt 0.0000 0.0000 0.0000
# 4 texture coords

g Box003
usemtl 03___Default
s 2
f 13/9/10 14/10/10 15/11/10 16/12/10 
s 4
f 17/12/11 18/9/11 19/10/11 20/11/11 
s 8
f 13/12/12 16/9/12 18/10/12 17/11/12 
s 16
f 16/12/13 15/9/13 19/10/13 18/11/13 
s 32
f 15/12/14 14/9/14 20/10/14 19/11/14 
s 64
f 14/12/15 13/9/15 17/10/15 20/11/15 
# 6 polygons

#
# object Box004
#

v  -33.7770 0.0000 -30.1120
v  -33.7770 0.0000 -64.8239
v  -2.8426 0.0000 -64.8239
v  -2.8426 0.0000 -30.1120
v  -33.7770 19.3256 -30.1120
v  -2.8426 19.3256 -30.1120
v  -2.8426 19.3256 -64.8239
v  -33.7770 19.3256 -64.8239
# 8 vertices

vn 0.0000 -1.0000 -0.0000
vn 0.0000 1.0000 -0.0000
vn 0.0000 0.0000 1.0000
vn 1.0000 0.0000 -0.0000
vn 0.0000 0.0000 -1.0000
vn -1.0000 0.0000 -0.0000
# 6 vertex normals

vt 1.0000 0.0000 0.0000
vt 1.0000 1.0000 0.0000
vt 0.0000 1.0000 0.0000
vt 0.0000 0.0000 0.0000
# 4 texture coords

g Box004
usemtl 02___Default
s 2
f 21/13/16 22/14/16 23/15/16 24/16/16 
s 4
f 25/16/17 26/13/17 27/14/17 28/15/17 
s 8
f 21/16/18 24/13/18 26/14/18 25/15/18 
s 16
f 24/16/19 23/13/19 27/14/19 26/15/19 
s 32
f 23/16/20 22/13/20 28/14/20 27/15/20 
s 64
f 22/16/21 21/13/21 25/14/21 28/15/21 
# 6 polygons

