# 3ds Max Wavefront OBJ Exporter v0.97b - (c)2007 guruware
# File Created: 30.01.2019 14:11:42

mtllib test.mtl

#
# object Box001
#

v  -30.5715 0.0000 25.1909
v  -30.5715 0.0000 -46.2144
v  -24.7471 0.0000 -46.2144
v  -24.7471 0.0000 25.1909
v  -30.5715 38.3709 25.1909
v  -24.7471 38.3709 25.1909
v  -24.7471 38.3709 -46.2144
v  -30.5715 38.3709 -46.2144
# 8 vertices

vn 0.0000 -1.0000 -0.0000
vn 0.0000 1.0000 -0.0000
vn 0.0000 0.0000 1.0000
vn 1.0000 0.0000 -0.0000
vn 0.0000 0.0000 -1.0000
vn -1.0000 0.0000 -0.0000
# 6 vertex normals

vt 1.0000 0.0000 0.0000
vt 1.0000 1.0000 0.0000
vt 0.0000 1.0000 0.0000
vt 0.0000 0.0000 0.0000
# 4 texture coords

g Box001
usemtl wire_140088225
s 2
f 1/1/1 2/2/1 3/3/1 4/4/1 
s 4
f 5/4/2 6/1/2 7/2/2 8/3/2 
s 8
f 1/4/3 4/1/3 6/2/3 5/3/3 
s 16
f 4/4/4 3/1/4 7/2/4 6/3/4 
s 32
f 3/4/5 2/1/5 8/2/5 7/3/5 
s 64
f 2/4/6 1/1/6 5/2/6 8/3/6 
# 6 polygons

#
# object Cone001
#

v  -0.2950 0.0000 36.2812
v  15.3816 0.0000 27.2303
v  17.1900 0.0000 31.5961
v  17.8068 0.0000 36.2812
v  8.7559 0.0000 20.6046
v  12.5049 0.0000 23.4813
v  -0.2950 0.0000 18.1794
v  4.3901 0.0000 18.7962
v  -9.3459 0.0000 20.6046
v  -4.9801 0.0000 18.7962
v  -15.9716 0.0000 27.2303
v  -13.0949 0.0000 23.4813
v  -18.3967 0.0000 36.2812
v  -17.7799 0.0000 31.5961
v  -15.9716 0.0000 45.3321
v  -17.7799 0.0000 40.9663
v  -9.3459 0.0000 51.9578
v  -13.0949 0.0000 49.0811
v  -0.2950 0.0000 54.3830
v  -4.9801 0.0000 53.7662
v  8.7559 0.0000 51.9578
v  4.3901 0.0000 53.7662
v  15.3816 0.0000 45.3321
v  12.5049 0.0000 49.0811
v  17.1900 0.0000 40.9663
v  16.4198 5.2630 31.8025
v  17.0094 5.2630 36.2812
v  14.6910 5.2630 27.6290
v  11.9411 5.2630 24.0452
v  8.3572 5.2630 21.2952
v  4.1837 5.2630 19.5665
v  -0.2950 5.2630 18.9768
v  -4.7737 5.2630 19.5665
v  -8.9471 5.2630 21.2952
v  -12.5310 5.2630 24.0452
v  -15.2810 5.2630 27.6290
v  -17.0097 5.2630 31.8025
v  -17.5993 5.2630 36.2812
v  -17.0097 5.2630 40.7599
v  -15.2810 5.2630 44.9334
v  -12.5310 5.2630 48.5172
v  -8.9472 5.2630 51.2672
v  -4.7737 5.2630 52.9959
v  -0.2950 5.2630 53.5856
v  4.1837 5.2630 52.9959
v  8.3572 5.2630 51.2672
v  11.9411 5.2630 48.5172
v  14.6910 5.2630 44.9334
v  16.4198 5.2630 40.7599
v  15.6495 10.5260 32.0089
v  16.2120 10.5260 36.2812
v  14.0005 10.5260 28.0277
v  11.3772 10.5260 24.6090
v  7.9585 10.5260 21.9858
v  3.9773 10.5260 20.3367
v  -0.2950 10.5260 19.7743
v  -4.5673 10.5260 20.3367
v  -8.5484 10.5260 21.9858
v  -11.9671 10.5260 24.6090
v  -14.5904 10.5260 28.0277
v  -16.2394 10.5260 32.0089
v  -16.8019 10.5260 36.2812
v  -16.2394 10.5260 40.5535
v  -14.5904 10.5260 44.5347
v  -11.9671 10.5260 47.9534
v  -8.5484 10.5260 50.5766
v  -4.5673 10.5260 52.2257
v  -0.2950 10.5260 52.7881
v  3.9773 10.5260 52.2257
v  7.9585 10.5260 50.5766
v  11.3772 10.5260 47.9534
v  14.0005 10.5260 44.5347
v  15.6495 10.5260 40.5535
v  14.8793 15.7890 32.2153
v  15.4145 15.7890 36.2812
v  13.3099 15.7890 28.4264
v  10.8133 15.7890 25.1729
v  7.5598 15.7890 22.6764
v  3.7710 15.7890 21.1070
v  -0.2950 15.7890 20.5717
v  -4.3609 15.7890 21.1070
v  -8.1497 15.7890 22.6764
v  -11.4033 15.7890 25.1729
v  -13.8998 15.7890 28.4264
v  -15.4692 15.7890 32.2153
v  -16.0045 15.7890 36.2812
v  -15.4692 15.7890 40.3471
v  -13.8998 15.7890 44.1359
v  -11.4033 15.7890 47.3895
v  -8.1497 15.7890 49.8860
v  -4.3609 15.7890 51.4554
v  -0.2950 15.7890 51.9907
v  3.7709 15.7890 51.4554
v  7.5598 15.7890 49.8860
v  10.8133 15.7890 47.3895
v  13.3099 15.7890 44.1360
v  14.8793 15.7890 40.3471
v  14.1090 21.0520 32.4217
v  14.6171 21.0520 36.2812
v  12.6193 21.0520 28.8251
v  10.2495 21.0520 25.7368
v  7.1611 21.0520 23.3669
v  3.5646 21.0520 21.8772
v  -0.2950 21.0520 21.3691
v  -4.1545 21.0520 21.8772
v  -7.7510 21.0520 23.3669
v  -10.8394 21.0520 25.7368
v  -13.2092 21.0520 28.8251
v  -14.6989 21.0520 32.4217
v  -15.2071 21.0520 36.2812
v  -14.6989 21.0520 40.1407
v  -13.2092 21.0520 43.7372
v  -10.8394 21.0520 46.8256
v  -7.7510 21.0520 49.1954
v  -4.1545 21.0520 50.6852
v  -0.2950 21.0520 51.1933
v  3.5646 21.0520 50.6852
v  7.1611 21.0520 49.1954
v  10.2495 21.0520 46.8256
v  12.6193 21.0520 43.7372
v  14.1090 21.0520 40.1407
v  13.3387 26.3150 32.6281
v  13.8197 26.3150 36.2812
v  11.9287 26.3150 29.2239
v  9.6856 26.3150 26.3006
v  6.7624 26.3150 24.0575
v  3.3582 26.3150 22.6475
v  -0.2950 26.3150 22.1665
v  -3.9481 26.3150 22.6475
v  -7.3523 26.3150 24.0575
v  -10.2755 26.3150 26.3006
v  -12.5186 26.3150 29.2239
v  -13.9287 26.3150 32.6280
v  -14.4096 26.3150 36.2812
v  -13.9287 26.3150 39.9343
v  -12.5186 26.3150 43.3385
v  -10.2755 26.3150 46.2618
v  -7.3523 26.3150 48.5048
v  -3.9481 26.3150 49.9149
v  -0.2950 26.3150 50.3959
v  3.3582 26.3150 49.9149
v  6.7624 26.3150 48.5049
v  9.6856 26.3150 46.2618
v  11.9287 26.3150 43.3385
v  13.3387 26.3150 39.9343
v  -0.2950 26.3150 36.2812
# 146 vertices

vn 0.0000 -1.0000 -0.0000
vn 0.9887 0.1498 0.0000
vn 0.9550 0.1498 -0.2559
vn 0.8563 0.1498 -0.4944
vn 0.6991 0.1498 -0.6991
vn 0.4944 0.1498 -0.8563
vn 0.2559 0.1498 -0.9550
vn 0.0000 0.1498 -0.9887
vn -0.2559 0.1498 -0.9550
vn -0.4944 0.1498 -0.8563
vn -0.6991 0.1498 -0.6991
vn -0.8563 0.1498 -0.4944
vn -0.9550 0.1498 -0.2559
vn -0.9887 0.1498 -0.0000
vn -0.9550 0.1498 0.2559
vn -0.8563 0.1498 0.4944
vn -0.6991 0.1498 0.6991
vn -0.4944 0.1498 0.8563
vn -0.2559 0.1498 0.9550
vn -0.0000 0.1498 0.9887
vn 0.2559 0.1498 0.9550
vn 0.4944 0.1498 0.8563
vn 0.6991 0.1498 0.6991
vn 0.8563 0.1498 0.4944
vn 0.9550 0.1498 0.2559
vn 0.0000 1.0000 -0.0000
# 26 vertex normals

vt 0.5000 0.0000 0.0000
vt 0.8333 0.0000 1.0000
vt 0.7917 0.0000 1.0000
vt 0.7500 0.0000 1.0000
vt 0.9167 0.0000 1.0000
vt 0.8750 0.0000 1.0000
vt 1.0000 0.0000 1.0000
vt 0.9583 0.0000 1.0000
vt 0.0833 0.0000 1.0000
vt 0.0417 0.0000 1.0000
vt -0.0000 0.0000 1.0000
vt 0.1667 0.0000 1.0000
vt 0.1250 0.0000 1.0000
vt 0.2500 0.0000 1.0000
vt 0.2083 0.0000 1.0000
vt 0.3333 0.0000 1.0000
vt 0.2917 0.0000 1.0000
vt 0.4167 0.0000 1.0000
vt 0.3750 0.0000 1.0000
vt 0.5000 0.0000 1.0000
vt 0.4583 0.0000 1.0000
vt 0.5833 0.0000 1.0000
vt 0.5417 0.0000 1.0000
vt 0.6667 0.0000 1.0000
vt 0.6250 0.0000 1.0000
vt 0.7083 0.0000 1.0000
vt 0.7917 0.2000 0.9559
vt 0.7500 0.2000 0.9559
vt 0.8333 0.2000 0.9559
vt 0.8750 0.2000 0.9559
vt 0.9167 0.2000 0.9559
vt 0.9583 0.2000 0.9559
vt 1.0000 0.2000 0.9559
vt 0.0417 0.2000 0.9559
vt -0.0000 0.2000 0.9559
vt 0.0833 0.2000 0.9559
vt 0.1250 0.2000 0.9559
vt 0.1667 0.2000 0.9559
vt 0.2083 0.2000 0.9559
vt 0.2500 0.2000 0.9559
vt 0.2917 0.2000 0.9559
vt 0.3333 0.2000 0.9559
vt 0.3750 0.2000 0.9559
vt 0.4167 0.2000 0.9559
vt 0.4583 0.2000 0.9559
vt 0.5000 0.2000 0.9559
vt 0.5417 0.2000 0.9559
vt 0.5833 0.2000 0.9559
vt 0.6250 0.2000 0.9559
vt 0.6667 0.2000 0.9559
vt 0.7083 0.2000 0.9559
vt 0.7917 0.4000 0.9119
vt 0.7500 0.4000 0.9119
vt 0.8333 0.4000 0.9119
vt 0.8750 0.4000 0.9119
vt 0.9167 0.4000 0.9119
vt 0.9583 0.4000 0.9119
vt 1.0000 0.4000 0.9119
vt 0.0417 0.4000 0.9119
vt -0.0000 0.4000 0.9119
vt 0.0833 0.4000 0.9119
vt 0.1250 0.4000 0.9119
vt 0.1667 0.4000 0.9119
vt 0.2083 0.4000 0.9119
vt 0.2500 0.4000 0.9119
vt 0.2917 0.4000 0.9119
vt 0.3333 0.4000 0.9119
vt 0.3750 0.4000 0.9119
vt 0.4167 0.4000 0.9119
vt 0.4583 0.4000 0.9119
vt 0.5000 0.4000 0.9119
vt 0.5417 0.4000 0.9119
vt 0.5833 0.4000 0.9119
vt 0.6250 0.4000 0.9119
vt 0.6667 0.4000 0.9119
vt 0.7083 0.4000 0.9119
vt 0.7917 0.6000 0.8678
vt 0.7500 0.6000 0.8678
vt 0.8333 0.6000 0.8678
vt 0.8750 0.6000 0.8678
vt 0.9167 0.6000 0.8678
vt 0.9583 0.6000 0.8678
vt 1.0000 0.6000 0.8678
vt 0.0417 0.6000 0.8678
vt -0.0000 0.6000 0.8678
vt 0.0833 0.6000 0.8678
vt 0.1250 0.6000 0.8678
vt 0.1667 0.6000 0.8678
vt 0.2083 0.6000 0.8678
vt 0.2500 0.6000 0.8678
vt 0.2917 0.6000 0.8678
vt 0.3333 0.6000 0.8678
vt 0.3750 0.6000 0.8678
vt 0.4167 0.6000 0.8678
vt 0.4583 0.6000 0.8678
vt 0.5000 0.6000 0.8678
vt 0.5417 0.6000 0.8678
vt 0.5833 0.6000 0.8678
vt 0.6250 0.6000 0.8678
vt 0.6667 0.6000 0.8678
vt 0.7083 0.6000 0.8678
vt 0.7917 0.8000 0.8238
vt 0.7500 0.8000 0.8238
vt 0.8333 0.8000 0.8238
vt 0.8750 0.8000 0.8238
vt 0.9167 0.8000 0.8238
vt 0.9583 0.8000 0.8238
vt 1.0000 0.8000 0.8238
vt 0.0417 0.8000 0.8238
vt -0.0000 0.8000 0.8238
vt 0.0833 0.8000 0.8238
vt 0.1250 0.8000 0.8238
vt 0.1667 0.8000 0.8238
vt 0.2083 0.8000 0.8238
vt 0.2500 0.8000 0.8238
vt 0.2917 0.8000 0.8238
vt 0.3333 0.8000 0.8238
vt 0.3750 0.8000 0.8238
vt 0.4167 0.8000 0.8238
vt 0.4583 0.8000 0.8238
vt 0.5000 0.8000 0.8238
vt 0.5417 0.8000 0.8238
vt 0.5833 0.8000 0.8238
vt 0.6250 0.8000 0.8238
vt 0.6667 0.8000 0.8238
vt 0.7083 0.8000 0.8238
vt 0.7917 1.0000 0.7797
vt 0.7500 1.0000 0.7797
vt 0.8333 1.0000 0.7797
vt 0.8750 1.0000 0.7797
vt 0.9167 1.0000 0.7797
vt 0.9583 1.0000 0.7797
vt 1.0000 1.0000 0.7797
vt 0.0417 1.0000 0.7797
vt -0.0000 1.0000 0.7797
vt 0.0833 1.0000 0.7797
vt 0.1250 1.0000 0.7797
vt 0.1667 1.0000 0.7797
vt 0.2083 1.0000 0.7797
vt 0.2500 1.0000 0.7797
vt 0.2917 1.0000 0.7797
vt 0.3333 1.0000 0.7797
vt 0.3750 1.0000 0.7797
vt 0.4167 1.0000 0.7797
vt 0.4583 1.0000 0.7797
vt 0.5000 1.0000 0.7797
vt 0.5417 1.0000 0.7797
vt 0.5833 1.0000 0.7797
vt 0.6250 1.0000 0.7797
vt 0.6667 1.0000 0.7797
vt 0.7083 1.0000 0.7797
vt 0.5000 1.0000 0.0000
vt -0.0076 1.0000 0.7266
# 153 texture coords

g Cone001
usemtl wire_086086086
s 1
f 9/5/7 10/6/7 11/7/7 12/8/7 
f 9/5/7 13/9/7 14/10/7 10/6/7 
f 9/5/7 15/11/7 16/12/7 13/9/7 
f 9/5/7 17/13/7 18/14/7 15/15/7 
f 9/5/7 19/16/7 20/17/7 17/13/7 
f 9/5/7 21/18/7 22/19/7 19/16/7 
f 9/5/7 23/20/7 24/21/7 21/18/7 
f 9/5/7 25/22/7 26/23/7 23/20/7 
f 9/5/7 27/24/7 28/25/7 25/22/7 
f 9/5/7 29/26/7 30/27/7 27/24/7 
f 9/5/7 31/28/7 32/29/7 29/26/7 
f 9/5/7 12/8/7 33/30/7 31/28/7 
s 8
f 12/8/8 11/7/9 34/31/9 35/32/8 
f 11/7/9 10/6/10 36/33/10 34/31/9 
f 10/6/10 14/10/11 37/34/11 36/33/10 
f 14/10/11 13/9/12 38/35/12 37/34/11 
f 13/9/12 16/12/13 39/36/13 38/35/12 
f 16/12/13 15/11/14 40/37/14 39/36/13 
f 15/15/14 18/14/15 41/38/15 40/39/14 
f 18/14/15 17/13/16 42/40/16 41/38/15 
f 17/13/16 20/17/17 43/41/17 42/40/16 
f 20/17/17 19/16/18 44/42/18 43/41/17 
f 19/16/18 22/19/19 45/43/19 44/42/18 
f 22/19/19 21/18/20 46/44/20 45/43/19 
f 21/18/20 24/21/21 47/45/21 46/44/20 
f 24/21/21 23/20/22 48/46/22 47/45/21 
f 23/20/22 26/23/23 49/47/23 48/46/22 
f 26/23/23 25/22/24 50/48/24 49/47/23 
f 25/22/24 28/25/25 51/49/25 50/48/24 
f 28/25/25 27/24/26 52/50/26 51/49/25 
f 27/24/26 30/27/27 53/51/27 52/50/26 
f 30/27/27 29/26/28 54/52/28 53/51/27 
f 29/26/28 32/29/29 55/53/29 54/52/28 
f 32/29/29 31/28/30 56/54/30 55/53/29 
f 31/28/30 33/30/31 57/55/31 56/54/30 
f 33/30/31 12/8/8 35/32/8 57/55/31 
f 35/32/8 34/31/9 58/56/9 59/57/8 
f 34/31/9 36/33/10 60/58/10 58/56/9 
f 36/33/10 37/34/11 61/59/11 60/58/10 
f 37/34/11 38/35/12 62/60/12 61/59/11 
f 38/35/12 39/36/13 63/61/13 62/60/12 
f 39/36/13 40/37/14 64/62/14 63/61/13 
f 40/39/14 41/38/15 65/63/15 64/64/14 
f 41/38/15 42/40/16 66/65/16 65/63/15 
f 42/40/16 43/41/17 67/66/17 66/65/16 
f 43/41/17 44/42/18 68/67/18 67/66/17 
f 44/42/18 45/43/19 69/68/19 68/67/18 
f 45/43/19 46/44/20 70/69/20 69/68/19 
f 46/44/20 47/45/21 71/70/21 70/69/20 
f 47/45/21 48/46/22 72/71/22 71/70/21 
f 48/46/22 49/47/23 73/72/23 72/71/22 
f 49/47/23 50/48/24 74/73/24 73/72/23 
f 50/48/24 51/49/25 75/74/25 74/73/24 
f 51/49/25 52/50/26 76/75/26 75/74/25 
f 52/50/26 53/51/27 77/76/27 76/75/26 
f 53/51/27 54/52/28 78/77/28 77/76/27 
f 54/52/28 55/53/29 79/78/29 78/77/28 
f 55/53/29 56/54/30 80/79/30 79/78/29 
f 56/54/30 57/55/31 81/80/31 80/79/30 
f 57/55/31 35/32/8 59/57/8 81/80/31 
f 59/57/8 58/56/9 82/81/9 83/82/8 
f 58/56/9 60/58/10 84/83/10 82/81/9 
f 60/58/10 61/59/11 85/84/11 84/83/10 
f 61/59/11 62/60/12 86/85/12 85/84/11 
f 62/60/12 63/61/13 87/86/13 86/85/12 
f 63/61/13 64/62/14 88/87/14 87/86/13 
f 64/64/14 65/63/15 89/88/15 88/89/14 
f 65/63/15 66/65/16 90/90/16 89/88/15 
f 66/65/16 67/66/17 91/91/17 90/90/16 
f 67/66/17 68/67/18 92/92/18 91/91/17 
f 68/67/18 69/68/19 93/93/19 92/92/18 
f 69/68/19 70/69/20 94/94/20 93/93/19 
f 70/69/20 71/70/21 95/95/21 94/94/20 
f 71/70/21 72/71/22 96/96/22 95/95/21 
f 72/71/22 73/72/23 97/97/23 96/96/22 
f 73/72/23 74/73/24 98/98/24 97/97/23 
f 74/73/24 75/74/25 99/99/25 98/98/24 
f 75/74/25 76/75/26 100/100/26 99/99/25 
f 76/75/26 77/76/27 101/101/27 100/100/26 
f 77/76/27 78/77/28 102/102/28 101/101/27 
f 78/77/28 79/78/29 103/103/29 102/102/28 
f 79/78/29 80/79/30 104/104/30 103/103/29 
f 80/79/30 81/80/31 105/105/31 104/104/30 
f 81/80/31 59/57/8 83/82/8 105/105/31 
f 83/82/8 82/81/9 106/106/9 107/107/8 
f 82/81/9 84/83/10 108/108/10 106/106/9 
f 84/83/10 85/84/11 109/109/11 108/108/10 
f 85/84/11 86/85/12 110/110/12 109/109/11 
f 86/85/12 87/86/13 111/111/13 110/110/12 
f 87/86/13 88/87/14 112/112/14 111/111/13 
f 88/89/14 89/88/15 113/113/15 112/114/14 
f 89/88/15 90/90/16 114/115/16 113/113/15 
f 90/90/16 91/91/17 115/116/17 114/115/16 
f 91/91/17 92/92/18 116/117/18 115/116/17 
f 92/92/18 93/93/19 117/118/19 116/117/18 
f 93/93/19 94/94/20 118/119/20 117/118/19 
f 94/94/20 95/95/21 119/120/21 118/119/20 
f 95/95/21 96/96/22 120/121/22 119/120/21 
f 96/96/22 97/97/23 121/122/23 120/121/22 
f 97/97/23 98/98/24 122/123/24 121/122/23 
f 98/98/24 99/99/25 123/124/25 122/123/24 
f 99/99/25 100/100/26 124/125/26 123/124/25 
f 100/100/26 101/101/27 125/126/27 124/125/26 
f 101/101/27 102/102/28 126/127/28 125/126/27 
f 102/102/28 103/103/29 127/128/29 126/127/28 
f 103/103/29 104/104/30 128/129/30 127/128/29 
f 104/104/30 105/105/31 129/130/31 128/129/30 
f 105/105/31 83/82/8 107/107/8 129/130/31 
f 107/107/8 106/106/9 130/131/9 131/132/8 
f 106/106/9 108/108/10 132/133/10 130/131/9 
f 108/108/10 109/109/11 133/134/11 132/133/10 
f 109/109/11 110/110/12 134/135/12 133/134/11 
f 110/110/12 111/111/13 135/136/13 134/135/12 
f 111/111/13 112/112/14 136/137/14 135/136/13 
f 112/114/14 113/113/15 137/138/15 136/139/14 
f 113/113/15 114/115/16 138/140/16 137/138/15 
f 114/115/16 115/116/17 139/141/17 138/140/16 
f 115/116/17 116/117/18 140/142/18 139/141/17 
f 116/117/18 117/118/19 141/143/19 140/142/18 
f 117/118/19 118/119/20 142/144/20 141/143/19 
f 118/119/20 119/120/21 143/145/21 142/144/20 
f 119/120/21 120/121/22 144/146/22 143/145/21 
f 120/121/22 121/122/23 145/147/23 144/146/22 
f 121/122/23 122/123/24 146/148/24 145/147/23 
f 122/123/24 123/124/25 147/149/25 146/148/24 
f 123/124/25 124/125/26 148/150/26 147/149/25 
f 124/125/26 125/126/27 149/151/27 148/150/26 
f 125/126/27 126/127/28 150/152/28 149/151/27 
f 126/127/28 127/128/29 151/153/29 150/152/28 
f 127/128/29 128/129/30 152/154/30 151/153/29 
f 128/129/30 129/130/31 153/155/31 152/154/30 
f 129/130/31 107/107/8 131/132/8 153/155/31 
s 1
f 154/156/32 153/155/32 131/132/32 130/131/32 
f 154/156/32 130/131/32 132/133/32 133/134/32 
f 154/156/32 133/134/32 134/135/32 135/136/32 
f 154/156/32 135/157/32 136/139/32 137/138/32 
f 154/156/32 137/138/32 138/140/32 139/141/32 
f 154/156/32 139/141/32 140/142/32 141/143/32 
f 154/156/32 141/143/32 142/144/32 143/145/32 
f 154/156/32 143/145/32 144/146/32 145/147/32 
f 154/156/32 145/147/32 146/148/32 147/149/32 
f 154/156/32 147/149/32 148/150/32 149/151/32 
f 154/156/32 149/151/32 150/152/32 151/153/32 
f 154/156/32 151/153/32 152/154/32 153/155/32 
# 144 polygons

